<svg width="31" height="30" viewBox="0 0 31 30" fill="none" xmlns="http://www.w3.org/2000/svg">
<path d="M16.9645 3.75H11.75C9.39298 3.75 8.21447 3.75 7.48223 4.48223C6.75 5.21447 6.75 6.39298 6.75 8.75V21.25C6.75 23.607 6.75 24.7855 7.48223 25.5178C8.21447 26.25 9.39298 26.25 11.75 26.25H19.25C21.607 26.25 22.7855 26.25 23.5178 25.5178C24.25 24.7855 24.25 23.607 24.25 21.25V11.0355C24.25 10.5246 24.25 10.2691 24.1548 10.0394C24.0597 9.8097 23.8791 9.62906 23.5178 9.26777L18.7322 4.48223C18.3709 4.12095 18.1903 3.9403 17.9606 3.84515C17.7309 3.75 17.4754 3.75 16.9645 3.75Z" stroke="#21466D" stroke-width="2"/>
<path d="M11.75 16.25L19.25 16.25" stroke="#21466D" stroke-width="2" stroke-linecap="round"/>
<path d="M11.75 21.25L16.75 21.25" stroke="#21466D" stroke-width="2" stroke-linecap="round"/>
<path d="M16.75 3.75V8.75C16.75 9.92851 16.75 10.5178 17.1161 10.8839C17.4822 11.25 18.0715 11.25 19.25 11.25H24.25" stroke="#21466D" stroke-width="2"/>
</svg>
