<svg width="106" height="56" viewBox="0 0 106 56" fill="none" xmlns="http://www.w3.org/2000/svg">
<rect x="1.5" y="1" width="103" height="54" rx="27" stroke="white" stroke-width="2"/>
<path d="M52.9999 13C57.2876 13 57.8226 13.015 59.5049 13.09C61.1855 13.165 62.3297 13.4155 63.3365 13.7875C64.3781 14.1685 65.2555 14.6845 66.1329 15.517C66.9354 16.2668 67.5563 17.1739 67.9525 18.175C68.3423 19.1305 68.6074 20.2195 68.6863 21.817C68.7605 23.416 68.781 23.9245 68.781 28C68.781 32.0755 68.7652 32.584 68.6863 34.183C68.6074 35.7805 68.3423 36.868 67.9525 37.825C67.5575 38.8267 66.9364 39.7339 66.1329 40.483C65.3438 41.2455 64.3896 41.8356 63.3365 42.2125C62.3313 42.583 61.1855 42.835 59.5049 42.91C57.8226 42.9805 57.2876 43 52.9999 43C48.7121 43 48.1772 42.985 46.4949 42.91C44.8142 42.835 43.6701 42.583 42.6632 42.2125C41.6096 41.8367 40.6551 41.2464 39.8668 40.483C39.0642 39.7333 38.4433 38.8262 38.0473 37.825C37.6559 36.8695 37.3923 35.7805 37.3134 34.183C37.2393 32.584 37.2188 32.0755 37.2188 28C37.2188 23.9245 37.2345 23.416 37.3134 21.817C37.3923 20.218 37.6559 19.132 38.0473 18.175C38.4422 17.1733 39.0633 16.266 39.8668 15.517C40.6554 14.7538 41.6097 14.1636 42.6632 13.7875C43.6701 13.4155 44.8126 13.165 46.4949 13.09C48.1772 13.0195 48.7121 13 52.9999 13ZM52.9999 20.5C50.9072 20.5 48.9002 21.2902 47.4204 22.6967C45.9406 24.1032 45.1093 26.0109 45.1093 28C45.1093 29.9891 45.9406 31.8968 47.4204 33.3033C48.9002 34.7098 50.9072 35.5 52.9999 35.5C55.0926 35.5 57.0996 34.7098 58.5793 33.3033C60.0591 31.8968 60.8904 29.9891 60.8904 28C60.8904 26.0109 60.0591 24.1032 58.5793 22.6967C57.0996 21.2902 55.0926 20.5 52.9999 20.5ZM63.2576 20.125C63.2576 19.6277 63.0498 19.1508 62.6798 18.7992C62.3099 18.4475 61.8081 18.25 61.285 18.25C60.7618 18.25 60.26 18.4475 59.8901 18.7992C59.5202 19.1508 59.3123 19.6277 59.3123 20.125C59.3123 20.6223 59.5202 21.0992 59.8901 21.4508C60.26 21.8025 60.7618 22 61.285 22C61.8081 22 62.3099 21.8025 62.6798 21.4508C63.0498 21.0992 63.2576 20.6223 63.2576 20.125ZM52.9999 23.5C54.2555 23.5 55.4597 23.9741 56.3476 24.818C57.2354 25.6619 57.7342 26.8065 57.7342 28C57.7342 29.1935 57.2354 30.3381 56.3476 31.182C55.4597 32.0259 54.2555 32.5 52.9999 32.5C51.7443 32.5 50.5401 32.0259 49.6522 31.182C48.7643 30.3381 48.2655 29.1935 48.2655 28C48.2655 26.8065 48.7643 25.6619 49.6522 24.818C50.5401 23.9741 51.7443 23.5 52.9999 23.5Z" fill="white"/>
</svg>
