<svg width="115" height="60" viewBox="0 0 115 60" fill="none" xmlns="http://www.w3.org/2000/svg">
  <rect width="115" height="60" fill="#F5F6FA"/>
  <path fill-rule="evenodd" clip-rule="evenodd" d="M48.75 28.25V24.75C48.75 22.4294 49.6719 20.2038 51.3128 18.5628C52.9538 16.9219 55.1794 16 57.5 16C59.8206 16 62.0462 16.9219 63.6872 18.5628C65.3281 20.2038 66.25 22.4294 66.25 24.75V28.25C67.1783 28.25 68.0685 28.6187 68.7249 29.2751C69.3813 29.9315 69.75 30.8217 69.75 31.75V40.5C69.75 41.4283 69.3813 42.3185 68.7249 42.9749C68.0685 43.6313 67.1783 44 66.25 44H48.75C47.8217 44 46.9315 43.6313 46.2751 42.9749C45.6187 42.3185 45.25 41.4283 45.25 40.5V31.75C45.25 30.8217 45.6187 29.9315 46.2751 29.2751C46.9315 28.6187 47.8217 28.25 48.75 28.25ZM62.75 24.75V28.25H52.25V24.75C52.25 23.3576 52.8031 22.0223 53.7877 21.0377C54.7723 20.0531 56.1076 19.5 57.5 19.5C58.8924 19.5 60.2277 20.0531 61.2123 21.0377C62.1969 22.0223 62.75 23.3576 62.75 24.75ZM57.5 12C55.8421 12 54.3046 12.6585 53.1872 13.7759C52.0698 14.8933 51.4113 16.4308 51.4113 18.0887H47.9113C47.9113 15.7871 48.8776 13.5982 50.5653 11.9105C52.253 10.2228 54.4419 9.25647 56.7436 9.25647C59.0452 9.25647 61.2341 10.2228 62.9218 11.9105C64.6095 13.5982 65.5758 15.7871 65.5758 18.0887V21.5887H62.0758V18.0887C62.0758 16.4308 61.4173 14.8933 60.2999 13.7759C59.1825 12.6585 57.645 12 56 12H57.5Z" fill="#21466D"/>
</svg>
