<svg width="106" height="56" viewBox="0 0 106 56" fill="none" xmlns="http://www.w3.org/2000/svg">
<rect x="1.5" y="1" width="103" height="54" rx="27" stroke="white" stroke-width="2"/>
<path d="M37.6955 26.9546C40.9244 24.9134 44.5287 23.2098 47.8964 21.4974C53.6902 18.6928 59.507 15.9367 65.3825 13.3708C66.5256 12.9337 68.5796 12.5062 68.781 14.4504C68.6707 17.2025 68.217 19.9385 67.9059 22.6744C67.116 28.6911 66.2031 34.6872 65.3129 40.6841C65.0062 42.6817 62.8259 43.7157 61.4308 42.4374C58.078 39.8383 54.6995 37.2644 51.3895 34.605C50.3053 33.3407 51.3107 31.5248 52.2791 30.6219C55.0405 27.4987 57.969 24.8451 60.5861 21.5604C61.2921 19.604 59.2062 21.2528 58.5182 21.7581C54.7378 24.7479 51.0499 27.9203 47.0641 30.548C45.0282 31.8342 42.6553 30.735 40.6203 30.0174C38.7958 29.1503 36.122 28.2768 37.6953 26.9549L37.6955 26.9546Z" fill="white"/>
</svg>
